<svg width="17" height="17" viewBox="0 0 17 17" fill="none" xmlns="http://www.w3.org/2000/svg">
<g id="slider">
<path id="Vector" d="M2.68867 8.08889C3.68278 8.08889 4.48867 7.283 4.48867 6.28889C4.48867 5.29478 3.68278 4.48889 2.68867 4.48889C1.69456 4.48889 0.888672 5.29478 0.888672 6.28889C0.888672 7.283 1.69456 8.08889 2.68867 8.08889Z" stroke="#4F4F4F" stroke-width="1.5" stroke-linecap="round" stroke-linejoin="round"/>
<path id="Vector_2" d="M2.68896 0.888885V4.48889" stroke="#4F4F4F" stroke-width="1.5" stroke-linecap="round" stroke-linejoin="round"/>
<path id="Vector_3" d="M2.68896 8.0889V15.2889" stroke="#4F4F4F" stroke-width="1.5" stroke-linecap="round" stroke-linejoin="round"/>
<path id="Vector_4" d="M8.08906 13.4889C9.08317 13.4889 9.88906 12.683 9.88906 11.6889C9.88906 10.6948 9.08317 9.88889 8.08906 9.88889C7.09495 9.88889 6.28906 10.6948 6.28906 11.6889C6.28906 12.683 7.09495 13.4889 8.08906 13.4889Z" stroke="#4F4F4F" stroke-width="1.5" stroke-linecap="round" stroke-linejoin="round"/>
<path id="Vector_5" d="M8.08887 0.888885V9.88889" stroke="#4F4F4F" stroke-width="1.5" stroke-linecap="round" stroke-linejoin="round"/>
<path id="Vector_6" d="M8.08887 13.4889V15.2889" stroke="#4F4F4F" stroke-width="1.5" stroke-linecap="round" stroke-linejoin="round"/>
<path id="Vector_7" d="M13.489 5.38888C14.4831 5.38888 15.289 4.58299 15.289 3.58888C15.289 2.59477 14.4831 1.78888 13.489 1.78888C12.4949 1.78888 11.689 2.59477 11.689 3.58888C11.689 4.58299 12.4949 5.38888 13.489 5.38888Z" stroke="#4F4F4F" stroke-width="1.5" stroke-linecap="round" stroke-linejoin="round"/>
<path id="Vector_8" d="M13.4888 0.888885V1.78889" stroke="#4F4F4F" stroke-width="1.5" stroke-linecap="round" stroke-linejoin="round"/>
<path id="Vector_9" d="M13.4888 5.38889V15.2889" stroke="#4F4F4F" stroke-width="1.5" stroke-linecap="round" stroke-linejoin="round"/>
</g>
</svg>
