<svg width="18" height="14" viewBox="0 0 18 14" fill="none" xmlns="http://www.w3.org/2000/svg">
<g id="money">
<path id="Vector" d="M9 9.72725C10.3807 9.72725 11.5 8.50621 11.5 6.99998C11.5 5.49375 10.3807 4.27271 9 4.27271C7.61929 4.27271 6.5 5.49375 6.5 6.99998C6.5 8.50621 7.61929 9.72725 9 9.72725Z" stroke="#828282" stroke-width="1.5" stroke-linecap="round" stroke-linejoin="round"/>
<path id="Vector_2" d="M14.8333 1.54541H3.16667C2.24619 1.54541 1.5 2.35944 1.5 3.36359V10.6363C1.5 11.6405 2.24619 12.4545 3.16667 12.4545H14.8333C15.7538 12.4545 16.5 11.6405 16.5 10.6363V3.36359C16.5 2.35944 15.7538 1.54541 14.8333 1.54541Z" stroke="#828282" stroke-width="1.5" stroke-linecap="round" stroke-linejoin="round"/>
<path id="Vector_3" d="M14 7H14.0083" stroke="#828282" stroke-width="1.5" stroke-linecap="round" stroke-linejoin="round"/>
<path id="Vector_4" d="M4 7H4.00833" stroke="#828282" stroke-width="1.5" stroke-linecap="round" stroke-linejoin="round"/>
</g>
</svg>
