<svg width="83" height="83" viewBox="0 0 83 83" fill="none" xmlns="http://www.w3.org/2000/svg">
<g id="Group 5">
<circle id="Ellipse 32" cx="81.5" cy="65.5" r="1.5" transform="rotate(-180 81.5 65.5)" fill="#F2C94C"/>
<circle id="Ellipse 80" cx="81.5" cy="81.5" r="1.5" transform="rotate(-180 81.5 81.5)" fill="#F2C94C"/>
<circle id="Ellipse 40" cx="81.5" cy="49.5" r="1.5" transform="rotate(-180 81.5 49.5)" fill="#F2C94C"/>
<circle id="Ellipse 48" cx="81.5" cy="33.5" r="1.5" transform="rotate(-180 81.5 33.5)" fill="#F2C94C"/>
<circle id="Ellipse 56" cx="81.5" cy="17.5" r="1.5" transform="rotate(-180 81.5 17.5)" fill="#F2C94C"/>
<circle id="Ellipse 64" cx="81.5" cy="1.5" r="1.5" transform="rotate(-180 81.5 1.5)" fill="#F2C94C"/>
<circle id="Ellipse 33" cx="65.5" cy="65.5" r="1.5" transform="rotate(-180 65.5 65.5)" fill="#F2C94C"/>
<circle id="Ellipse 81" cx="65.5" cy="81.5" r="1.5" transform="rotate(-180 65.5 81.5)" fill="#F2C94C"/>
<circle id="Ellipse 41" cx="65.5" cy="49.5" r="1.5" transform="rotate(-180 65.5 49.5)" fill="#F2C94C"/>
<circle id="Ellipse 49" cx="65.5" cy="33.5" r="1.5" transform="rotate(-180 65.5 33.5)" fill="#F2C94C"/>
<circle id="Ellipse 57" cx="65.5" cy="17.5" r="1.5" transform="rotate(-180 65.5 17.5)" fill="#F2C94C"/>
<circle id="Ellipse 65" cx="65.5" cy="1.5" r="1.5" transform="rotate(-180 65.5 1.5)" fill="#F2C94C"/>
<circle id="Ellipse 34" cx="49.5" cy="65.5" r="1.5" transform="rotate(-180 49.5 65.5)" fill="#F2C94C"/>
<circle id="Ellipse 82" cx="49.5" cy="81.5" r="1.5" transform="rotate(-180 49.5 81.5)" fill="#F2C94C"/>
<circle id="Ellipse 42" cx="49.5" cy="49.5" r="1.5" transform="rotate(-180 49.5 49.5)" fill="#F2C94C"/>
<circle id="Ellipse 50" cx="49.5" cy="33.5" r="1.5" transform="rotate(-180 49.5 33.5)" fill="#F2C94C"/>
<circle id="Ellipse 58" cx="49.5" cy="17.5" r="1.5" transform="rotate(-180 49.5 17.5)" fill="#F2C94C"/>
<circle id="Ellipse 66" cx="49.5" cy="1.5" r="1.5" transform="rotate(-180 49.5 1.5)" fill="#F2C94C"/>
<circle id="Ellipse 35" cx="33.5" cy="65.5" r="1.5" transform="rotate(-180 33.5 65.5)" fill="#F2C94C"/>
<circle id="Ellipse 83" cx="33.5" cy="81.5" r="1.5" transform="rotate(-180 33.5 81.5)" fill="#F2C94C"/>
<circle id="Ellipse 43" cx="33.5" cy="49.5" r="1.5" transform="rotate(-180 33.5 49.5)" fill="#F2C94C"/>
<circle id="Ellipse 51" cx="33.5" cy="33.5" r="1.5" transform="rotate(-180 33.5 33.5)" fill="#F2C94C"/>
<circle id="Ellipse 59" cx="33.5" cy="17.5" r="1.5" transform="rotate(-180 33.5 17.5)" fill="#F2C94C"/>
<circle id="Ellipse 67" cx="33.5" cy="1.5" r="1.5" transform="rotate(-180 33.5 1.5)" fill="#F2C94C"/>
<circle id="Ellipse 36" cx="17.5" cy="65.5" r="1.5" transform="rotate(-180 17.5 65.5)" fill="#F2C94C"/>
<circle id="Ellipse 84" cx="17.5" cy="81.5" r="1.5" transform="rotate(-180 17.5 81.5)" fill="#F2C94C"/>
<circle id="Ellipse 44" cx="17.5" cy="49.5" r="1.5" transform="rotate(-180 17.5 49.5)" fill="#F2C94C"/>
<circle id="Ellipse 52" cx="17.5" cy="33.5" r="1.5" transform="rotate(-180 17.5 33.5)" fill="#F2C94C"/>
<circle id="Ellipse 60" cx="17.5" cy="17.5" r="1.5" transform="rotate(-180 17.5 17.5)" fill="#F2C94C"/>
<circle id="Ellipse 68" cx="17.5" cy="1.5" r="1.5" transform="rotate(-180 17.5 1.5)" fill="#F2C94C"/>
<circle id="Ellipse 37" cx="1.5" cy="65.5" r="1.5" transform="rotate(-180 1.5 65.5)" fill="#F2C94C"/>
<circle id="Ellipse 85" cx="1.5" cy="81.5" r="1.5" transform="rotate(-180 1.5 81.5)" fill="#F2C94C"/>
<circle id="Ellipse 45" cx="1.5" cy="49.5" r="1.5" transform="rotate(-180 1.5 49.5)" fill="#F2C94C"/>
<circle id="Ellipse 53" cx="1.5" cy="33.5" r="1.5" transform="rotate(-180 1.5 33.5)" fill="#F2C94C"/>
<circle id="Ellipse 61" cx="1.5" cy="17.5" r="1.5" transform="rotate(-180 1.5 17.5)" fill="#F2C94C"/>
<circle id="Ellipse 69" cx="1.5" cy="1.5" r="1.5" transform="rotate(-180 1.5 1.5)" fill="#F2C94C"/>
</g>
</svg>
